<svg xmlns="http://www.w3.org/2000/svg" xmlns:xlink="http://www.w3.org/1999/xlink" version="1.1" id="Layer_1" x="0px" y="0px" width="100%" viewBox="0 0 992 1024" enable-background="new 0 0 992 1024" xml:space="preserve">
<path fill="#0082AA" opacity="1.000000" stroke="none" d=" M416.713684,491.246338   C401.882111,471.998322 407.808105,445.812286 429.016815,436.915527   C441.900848,431.510803 454.309448,433.112610 465.010956,442.298004   C476.340118,452.022156 479.782379,464.541901 475.646881,478.842255   C474.707214,482.091644 474.924957,484.371796 476.800995,487.096313   C484.450714,498.205688 491.446960,509.775513 500.243011,520.068359   C522.325195,545.908447 553.104004,553.448242 584.098328,539.473572   C612.416077,526.705750 632.067810,505.773560 637.943054,474.463593   C641.779907,454.016479 637.021973,434.634521 625.633240,417.250427   C609.557739,392.712128 587.589478,376.571899 558.104614,371.823822   C551.002380,370.680176 543.811768,370.728699 536.672974,371.216125   C532.515442,371.500000 530.823669,370.574554 530.523254,365.973145   C529.885254,356.199799 528.564636,346.464722 527.327454,336.738922   C526.453369,329.867737 526.614929,329.400024 533.745911,329.045166   C555.053894,327.984772 575.607239,331.699768 595.094971,340.195709   C637.058044,358.490173 665.352661,389.630249 676.909302,433.892670   C689.643860,482.666443 675.745667,524.157776 637.825806,557.581726   C620.050720,573.249329 599.878479,584.124084 576.509216,588.230164   C536.227356,595.307861 502.852875,581.698547 474.889374,552.982849   C461.877930,539.621460 452.499481,523.620911 442.787018,507.894562   C440.815765,504.702667 438.517639,502.847656 434.707886,502.049042   C427.703644,500.580719 421.754456,496.908997 416.713684,491.246338  z"/>
<path fill="#89BF33" opacity="1.000000" stroke="none" d=" M404.709839,595.422729   C366.212311,577.848938 340.272827,549.157227 326.939545,509.559967   C310.838501,461.742859 325.240997,412.215149 363.519104,379.300232   C379.180756,365.832977 396.291443,355.355591 416.438293,350.256195   C455.781372,340.297943 490.201782,350.038696 520.286926,376.531219   C534.981140,389.470673 545.526794,405.713654 555.527100,422.296112   C557.651611,425.818970 560.140808,427.756134 564.216980,428.847229   C583.299683,433.955505 593.676208,450.416382 590.260742,469.459900   C587.219971,486.414185 570.502991,498.718872 552.772705,497.053253   C531.961182,495.098175 517.428528,473.981598 523.067505,453.497009   C524.056213,449.905457 523.680176,447.329651 521.600586,444.292450   C514.543518,433.985596 507.711334,423.569336 499.458618,414.099274   C476.825562,388.127594 443.009857,385.403229 416.465302,397.826019   C393.471985,408.586853 376.131226,425.200867 367.528564,449.339020   C357.746460,476.786499 363.587982,502.326569 380.557526,525.257629   C395.744263,545.779541 415.537659,559.760803 441.270935,564.238159   C449.698273,565.704407 458.158844,566.167297 466.646271,565.501770   C469.956512,565.242249 471.029388,566.267212 471.348114,569.469849   C472.417877,580.219482 473.620880,590.960693 475.059174,601.666687   C475.654358,606.096863 473.710236,607.123413 469.819214,607.331909   C447.285339,608.539551 425.688599,604.768188 404.709839,595.422729  z"/>
<path fill="#000000" opacity="1.000000" stroke="none" d=" M408.182129,696.194519   C404.508453,696.031067 404.689819,693.674744 404.683716,691.489319   C404.657745,682.158142 404.875519,672.820129 404.585480,663.497620   C404.240051,652.395142 394.802643,646.783936 385.560547,651.989807   C379.926788,655.163208 378.563477,660.654175 378.433075,666.506958   C378.254944,674.501282 378.193024,682.508301 378.449249,690.498108   C378.586670,694.783081 377.242950,696.827759 372.783844,696.264709   C371.799713,696.140442 370.775330,696.148132 369.788788,696.262146   C365.488342,696.759033 363.824646,694.994873 363.937897,690.588257   C364.164673,681.763306 364.042847,672.926758 363.933472,664.096558   C363.816650,654.664246 359.958954,650.290833 351.988434,650.293335   C344.067871,650.295837 338.540894,655.826416 338.336609,664.398499   C338.130249,673.058472 338.044281,681.734619 338.348877,690.388123   C338.515198,695.112976 336.694611,696.780273 332.231598,696.276428   C330.914703,696.127808 329.564392,696.175354 328.235840,696.249084   C325.063019,696.425049 323.724152,694.975769 323.735229,691.802917   C323.792389,675.473572 323.795410,659.143738 323.740845,642.814392   C323.730896,639.833069 324.981049,638.520752 327.935333,638.676331   C329.430603,638.755066 330.939514,638.765137 332.432281,638.661682   C335.801422,638.428223 338.247711,639.140503 336.982788,644.450439   C343.446411,640.002808 349.481598,637.413635 356.308929,637.867798   C363.156555,638.323242 369.358826,640.450989 374.143311,646.312012   C378.803314,642.506836 383.665771,639.579407 389.555145,638.455017   C405.617126,635.388489 416.754547,643.486023 418.493744,659.646118   C419.621338,670.123108 418.726654,680.619629 419.047150,691.100830   C419.165009,694.955872 417.500092,696.624329 413.647858,696.268066   C411.995026,696.115173 410.317566,696.228394 408.182129,696.194519  z"/>
<path fill="#000000" opacity="1.000000" stroke="none" d=" M753.947815,616.672607   C759.120605,615.971008 760.416016,618.179871 760.324463,622.640625   C760.092346,633.957947 760.264709,645.283508 760.274658,656.605774   C760.276062,658.230530 760.274902,659.855347 760.274902,661.558167   C763.127625,661.689209 764.236084,659.805725 765.610474,658.524109   C770.236816,654.210083 775.299255,650.217468 779.210571,645.316345   C785.450317,637.497620 793.406128,638.139038 801.678589,639.007812   C802.402405,640.900146 801.035706,641.623169 800.156433,642.521851   C794.567322,648.233826 789.093750,654.070251 783.287659,659.553894   C780.286987,662.387878 780.477905,664.423767 783.012390,667.453735   C789.525696,675.240234 795.720642,683.293274 802.032532,691.247925   C802.947327,692.400879 804.072815,693.448853 804.256714,695.026489   C797.018066,698.344482 788.643250,696.466309 784.050781,690.670349   C780.018982,685.582031 775.830200,680.618103 771.799377,675.529053   C770.082764,673.361694 768.771240,673.467590 766.445435,675.047119   C760.913879,678.803833 759.715759,683.841431 760.134521,690.105591   C760.543091,696.217834 760.169128,696.244995 753.019653,696.248840   C745.907959,696.252625 745.768066,696.181519 745.759399,690.108032   C745.727844,668.129456 745.737244,646.150879 745.730652,624.172302   C745.728394,616.707581 745.727661,616.707581 753.947815,616.672607  z"/>
<path fill="#000000" opacity="1.000000" stroke="none" d=" M604.665405,682.989624   C604.539490,675.506348 604.920715,668.465271 604.152588,661.551880   C603.294922,653.832397 599.038757,650.402710 592.014526,650.302979   C584.220947,650.192261 578.840881,653.991089 577.330078,661.111450   C575.514587,669.667664 576.589783,678.360046 576.576111,686.997375   C576.574280,688.159424 576.735535,689.320740 576.778625,690.484009   C576.927795,694.501038 575.513062,696.444275 570.963562,696.334045   C562.014648,696.117310 561.700012,696.306763 562.178528,687.637573   C563.364197,666.156006 561.704895,644.690857 562.108948,623.219666   C562.150330,621.021545 561.178406,617.740601 563.955200,617.089294   C567.758667,616.197083 571.955872,615.896851 575.729980,617.411987   C577.319214,618.049927 576.882385,620.358276 576.887146,622.002869   C576.906311,628.614807 576.895081,635.226868 576.895081,642.316772   C581.600586,641.256531 584.991089,639.111328 588.909424,638.384338   C606.189819,635.178223 618.321960,644.848450 618.417603,662.222107   C618.469788,671.713318 618.221802,681.210999 618.502075,690.694092   C618.635010,695.193054 616.938721,696.432983 612.676331,696.335449   C604.685181,696.152466 604.680115,696.356934 604.667358,688.484192   C604.664612,686.818848 604.666016,685.153442 604.665405,682.989624  z"/>
<path fill="#000000" opacity="1.000000" stroke="none" d=" M519.866699,620.567261   C532.701477,618.575378 543.707581,621.543396 553.247009,629.808289   C556.024658,632.214844 556.989502,634.449524 553.285645,636.854797   C552.459839,637.391052 551.687500,638.103699 551.095642,638.889648   C548.639465,642.150818 546.524231,641.815918 543.367004,639.297119   C532.921265,630.963623 518.238831,631.727539 509.105164,640.649902   C500.218292,649.331177 499.273529,664.233704 506.956299,674.547180   C515.025635,685.379578 531.811401,687.128113 543.716736,678.432007   C545.069519,677.443970 546.310913,675.079895 548.335571,676.679993   C551.035583,678.813721 554.770447,680.565613 555.477051,684.009399   C556.026489,686.687256 552.776306,688.377686 550.620483,689.766479   C537.970032,697.916077 524.434448,699.123535 510.517487,693.770996   C494.726440,687.697693 485.434937,672.245422 486.840179,655.312500   C488.338623,637.256470 500.324432,624.503113 519.866699,620.567261  z"/>
<path fill="#000000" opacity="1.000000" stroke="none" d=" M231.728821,620.449829   C244.350845,619.024475 255.233139,621.808472 264.360779,630.389648   C266.679474,632.569519 266.958923,634.447876 264.358582,636.524170   C263.452606,637.247620 262.583527,638.059753 261.860321,638.961853   C259.373260,642.063721 257.247650,641.995178 254.068008,639.354675   C245.533844,632.267517 235.854752,631.651794 226.015411,636.288452   C216.831543,640.616150 212.562653,648.470520 212.391327,658.380859   C212.219864,668.300171 216.229691,676.374939 225.281281,680.900452   C234.693924,685.606567 244.187256,685.326965 253.208160,679.303711   C254.912033,678.166016 256.312958,675.333618 258.585907,676.492065   C261.661194,678.059326 264.233673,680.672607 266.071228,683.636353   C267.192810,685.445312 265.149841,686.612488 263.962982,687.653198   C257.024597,693.737061 248.692307,696.054138 239.679352,696.818054   C220.358490,698.455505 202.382080,685.532837 198.576752,667.066650   C193.782333,643.800720 207.663208,624.059937 231.728821,620.449829  z"/>
<path fill="#000000" opacity="1.000000" stroke="none" d=" M426.889709,675.676636   C420.421631,648.485962 444.490112,632.523315 465.228027,639.451843   C477.239746,643.464783 485.505981,655.861206 484.330322,668.480286   C483.991791,672.113708 481.804382,672.228699 479.159729,672.225403   C468.346436,672.212036 457.533142,672.217041 446.719849,672.215332   C444.917328,672.215027 443.114807,672.215271 441.296661,672.215271   C441.702332,679.777100 449.597229,685.326111 458.460266,684.555908   C462.440826,684.209961 466.416840,683.438843 469.658783,680.810669   C474.933563,676.534241 475.929840,682.357971 478.337982,684.529419   C481.498749,687.379517 478.841339,689.220337 476.774628,690.855347   C463.775330,701.139038 433.821747,699.525024 426.889709,675.676636  M454.506592,661.816040   C459.565125,661.607910 464.674377,662.370422 469.728027,661.389465   C468.583466,653.724731 462.239197,648.878723 454.413788,649.368042   C446.775513,649.845642 441.335602,654.729553 441.191803,661.402527   C445.258911,662.350586 449.408508,661.639709 454.506592,661.816040  z"/>
<path fill="#000000" opacity="1.000000" stroke="none" d=" M678.594727,672.207336   C665.558472,672.211670 652.974670,672.211670 640.273560,672.211670   C642.690491,684.895996 654.817627,687.319153 672.319519,679.263550   C681.324036,686.837158 681.720825,688.776917 670.443115,694.051880   C652.823120,702.293335 631.785400,693.564392 626.481750,676.494263   C621.713989,661.148987 628.971130,645.328735 643.260986,639.916016   C658.514099,634.138489 674.964844,640.542969 681.076355,654.679199   C682.885620,658.863953 683.398499,663.285767 683.497253,667.829590   C683.568970,671.130066 682.171875,672.413940 678.594727,672.207336  M651.530884,661.829102   C657.380615,661.622498 663.288025,662.320557 669.198425,661.438660   C667.568909,653.550354 661.488647,649.002319 653.873901,649.362183   C646.505981,649.710388 641.127563,654.366150 640.163940,661.831909   C643.671509,661.831909 647.110413,661.831909 651.530884,661.829102  z"/>
<path fill="#000000" opacity="1.000000" stroke="none" d=" M701.778442,658.999573   C697.116089,671.446899 702.089172,681.979248 713.443176,684.206543   C719.095825,685.315369 723.886841,683.473755 727.963867,679.474365   C730.685669,676.804382 734.465820,677.607544 738.968811,681.751099   C742.224731,684.747253 739.021790,686.553955 737.454529,688.291016   C729.504883,697.101929 715.090027,699.453247 702.825806,694.128357   C691.146606,689.057556 684.744141,677.883789 685.684326,664.212891   C686.490662,652.489380 694.493530,642.817505 706.359192,639.467651   C718.242004,636.112915 729.127441,637.463806 737.942627,646.960693   C739.466675,648.602539 742.370911,651.106567 738.864868,653.015686   C735.722229,654.727051 732.985168,660.010437 728.196045,655.696472   C718.972473,647.388000 708.751770,648.541626 701.778442,658.999573  z"/>
<path fill="#000000" opacity="1.000000" stroke="none" d=" M272.820496,632.005310   C272.821899,629.675415 272.822327,627.844482 272.825195,626.013550   C272.839661,616.731201 275.710144,614.580505 284.827209,616.747620   C287.046814,617.275269 287.275726,618.680115 287.276459,620.413391   C287.286682,644.381714 287.269867,668.350037 287.305511,692.318359   C287.309570,695.050842 286.119110,696.323853 283.413696,696.231201   C283.081604,696.219849 282.748077,696.241150 282.415497,696.253967   C272.806610,696.625183 272.818939,696.625305 272.822998,686.932678   C272.830536,668.789856 272.822266,650.647095 272.820496,632.005310  z"/>
<path fill="#000000" opacity="1.000000" stroke="none" d=" M312.938843,666.000000   C312.942657,674.312134 312.807068,682.127563 312.998779,689.935059   C313.110535,694.486694 311.686981,696.932739 306.717255,696.283997   C305.081635,696.070435 303.396484,696.189148 301.735626,696.227295   C299.372528,696.281433 298.557739,695.083984 298.564026,692.831238   C298.611237,675.877441 298.623657,658.923340 298.588318,641.969543   C298.583435,639.628601 299.563629,638.692932 301.857452,638.689636   C314.189819,638.672058 312.788513,637.722534 312.904144,648.546143   C312.964508,654.196838 312.929016,659.848694 312.938843,666.000000  z"/>
<path fill="#000000" opacity="1.000000" stroke="none" d=" M303.667603,613.493164   C308.484253,612.799744 312.016296,614.265930 313.824738,618.447998   C315.365051,622.010193 314.397369,625.407410 311.510559,627.932495   C308.471588,630.590759 304.917358,630.925232 301.317719,629.018860   C298.278351,627.409180 296.636810,624.809387 296.763580,621.333435   C296.917542,617.111328 299.394012,614.716797 303.667603,613.493164  z"/>

</svg>

